<svg xmlns="http://www.w3.org/2000/svg" viewBox="-50 -50 100 100" style="overflow: visible">
<style type="text/css">
	.st0{fill:#4DAF4C;}
</style>
<polygon class="st0" points="66.87,20.84 65.05,22.17 66.32,22.32 63.84,23.77 66.55,24.11 65.1,26.16 65.63,26.23 64.43,27.23 
	64.9,27.76 63.33,28.48 62.97,29.14 61.94,29.29 62.34,30.42 60.73,30.9 59,30.68 59.63,31.57 57.67,31.6 55.77,31.09 54.71,29.81 
	53.03,28.66 51.19,27.62 49.57,27.08 47.82,27.62 45.99,28.66 44.31,29.81 43.25,31.09 41.35,31.6 39.39,31.57 40.02,30.68 
	38.29,30.9 36.67,30.42 37.07,29.29 36.04,29.14 35.69,28.48 34.11,27.76 34.59,27.23 33.38,26.23 33.91,26.16 32.46,24.11 
	35.17,23.77 32.7,22.32 33.96,22.17 32.14,20.84 32.71,20.77 31.4,18.97 33.07,18.76 32.05,17.13 32.92,17.02 31.83,15.33 
	33.3,15.15 32.63,13.07 33.7,12.94 32.96,11.88 33.31,11.43 33.23,10.22 35.95,10.9 36.24,10.52 37.34,11.2 37.96,10.78 39,11.52 
	40.12,8.02 41.19,8.97 43.67,6.09 44.34,7.1 46.08,4.84 46.51,5.53 49.51,3 52.51,5.53 52.93,4.84 54.68,7.1 55.35,6.09 57.83,8.97 
	58.89,8.02 60.02,11.52 61.05,10.78 61.68,11.2 62.78,10.52 63.07,10.9 65.79,10.22 65.71,11.43 66.06,11.88 65.32,12.94 
	66.38,13.07 65.72,15.15 67.19,15.33 66.1,17.02 66.96,17.13 65.95,18.76 67.61,18.97 66.31,20.77 ">

	<animate
		attributeName="fill"
		attributeType="XML"
		values="#4DAF4C;#fff;#4DAF4C"
		begin="1s"
		dur="5s"
    	repeatCount="indefinite" />

</polygon>
<polygon class="st0" points="66.73,84.48 66.95,84.8 66.3,85.86 66.3,86.41 65.51,86.87 65.33,87.61 65.88,89.13 65.01,89.83 
	65.19,90.29 64.31,90.94 64.31,91.4 61.87,92.27 60.85,94.54 58.77,95.23 58.27,96.06 56,95.74 55.5,96.06 54.16,95.18 53.65,95.41 
	52.22,92.92 51.93,91 51.37,89.11 50.38,88.23 49.51,87.92 49.51,87.98 48.63,88.3 47.63,89.18 47.07,91.07 46.79,92.99 
	45.35,95.48 44.85,95.25 43.51,96.13 43,95.81 40.74,96.13 40.23,95.3 38.15,94.61 37.14,92.34 34.69,91.47 34.69,91.01 
	33.81,90.36 34,89.9 33.12,89.2 33.67,87.68 33.49,86.94 32.7,86.48 32.7,85.93 32.06,84.87 32.27,84.55 31.66,83.37 32.15,82.63 
	31.94,81.42 32.21,81.11 32.05,79.6 32.48,79.23 32.4,77.24 32.97,76.82 33.24,75.09 33.51,74.89 34.13,72.58 34.42,72.31 
	35.34,73.18 36.08,73.26 36.48,73.4 36.74,73.26 37.11,73.24 38.18,73.9 38.86,73.94 40.12,75.92 40.72,76.27 41.77,76.23 
	42.02,75.77 41.89,75.22 41.36,74.76 41.03,74.21 40.74,73.53 41.03,73.24 41.03,72.31 41.09,71.96 41.36,71.96 41.54,71.22 
	41.67,70.95 41.81,70.58 41.89,70.09 42.98,70.09 43.42,69.41 43.66,69.41 44.32,68.48 45.27,68.38 46.07,67.37 46.69,67.18 
	47.47,66.55 48.07,66.55 48.96,65.99 49.49,65.4 49.49,65.31 50.05,65.92 50.93,66.48 51.53,66.48 52.31,67.12 52.93,67.3 
	53.73,68.31 54.68,68.41 55.34,69.34 55.59,69.34 56.02,70.02 57.11,70.02 57.19,70.51 57.34,70.88 57.46,71.15 57.65,71.89 
	57.92,71.89 57.98,72.24 57.98,73.17 58.27,73.46 57.98,74.14 57.65,74.69 57.11,75.15 56.99,75.7 57.24,76.16 58.29,76.2 
	58.88,75.85 60.14,73.87 60.82,73.83 61.89,73.17 62.26,73.19 62.53,73.33 62.92,73.19 63.66,73.11 64.59,72.24 64.88,72.51 
	65.49,74.82 65.76,75.02 66.03,76.75 66.61,77.17 66.52,79.16 66.96,79.53 66.79,81.04 67.06,81.35 66.85,82.56 67.35,83.3 ">
	
	<animate 
		attributeName="fill"
		attributeType="XML"
		values="#4DAF4C;#fff;#4DAF4C"
		begin="3s"
		dur="5s"
		fill="freeze"
    	repeatCount="indefinite" />

</polygon>
<polygon class="st0" d="M63.74,54.01v0.61l0.35,0.44l-1,0.79l0.56,0.78l0.44,0.58l-0.61,0.43l-1.4,0.04l-1.18-0.23v0.41l-0.83-0.41
	l0.09,0.58l-0.87-0.13l-0.7-0.45l-0.48-0.24l-0.66-0.27l-0.61,0.04l-0.31,0.92l1.31,0.61l1.05,0.09l-0.43,0.65l0.69,0.72l1.31,0.72
	l0.88,1.14l-1.01,0.13v0.44h-1.04v0.43l-1.01-0.21c0,0,0.13,0.52,0,0.56c-0.13,0.05-0.7,0.22-0.7,0.22l-0.96-0.04l-0.43,0.74
	l-0.97-0.35l-0.78-0.17l-1.22-0.57l-1.66-1.05l-0.61-0.87l-0.27-0.96l-0.78-0.44l-0.05-0.57l0.57-0.52l0.26-1.15l-0.26-1.04
	l-0.92-0.56l-0.91,0.56l-0.27,1.04l0.27,1.15l0.56,0.52l-0.04,0.57l-0.79,0.44l-0.26,0.96l-0.61,0.87l-1.66,1.05l-1.22,0.57
	l-0.79,0.17l-0.96,0.35l-0.43-0.74l-0.96,0.04c0,0-0.57-0.17-0.7-0.22c-0.13-0.04,0-0.56,0-0.56l-1.01,0.21V62.4h-1.05v-0.44
	l-1-0.13l0.87-1.14l1.31-0.72l0.7-0.72l-0.43-0.65l1.04-0.09l1.31-0.61l-0.3-0.92l-0.61-0.04l-0.66,0.27l-0.48,0.24l-0.7,0.45
	l-0.87,0.13l0.09-0.58l-0.83,0.41v-0.41l-1.18,0.23l-1.4-0.04l-0.61-0.43l0.44-0.58l0.56-0.78l-1-0.79l0.35-0.44v-0.61l-0.61-0.61
	l-0.57-0.61l0.65-0.35l-0.3-1.22h0.43v-1.09l-0.43-0.7h0.48l-0.35-1.09l-0.22-1.43h3.36l-0.17-0.41l0.78,0.41l1.23,0.47l-0.05-0.47
	l0.96,0.6l0.92,1.22l0.42,0.65l1.11,0.4l0.57-0.18l0.3-0.78l-0.04-0.7l-0.61-0.53l-0.7-0.08l-0.63-0.18l-0.81-0.22L40.6,46.5h0.83
	l-0.79-0.76l-0.52-0.5l-0.18-0.53h0.7l-0.48-0.66l-0.13-1.17l0.04-0.35l1.27-0.18l0.83,0.31l-0.09-1.4l0.44,0.35L42.6,41
	c0,0,0.05-0.66,0-0.79c-0.04-0.13-0.3-0.96-0.3-0.96l0.22-0.35l0.91,0.53l0.53,0.35l0.17-0.7l0.05-0.88h0.35l0.56-0.82l0.53,0.21
	l0.26-1.69l0.48,0.25l0.77-1.28l1.22-1.42l1.15-0.57l1.15,0.57l1.23,1.42l0.77,1.28l0.48-0.25l0.26,1.69l0.52-0.21l0.57,0.82h0.35
	l0.05,0.88l0.17,0.7l0.52-0.35l0.92-0.53l0.22,0.35c0,0-0.26,0.83-0.31,0.96c-0.04,0.13,0,0.79,0,0.79l0.09,0.61l0.44-0.35
	l-0.09,1.4l0.83-0.31l1.27,0.18l0.04,0.35l-0.13,1.17l-0.48,0.66h0.7l-0.18,0.53l-0.52,0.5l-0.79,0.76h0.83l-0.39,0.61l-0.81,0.22
	l-0.63,0.18l-0.7,0.08l-0.61,0.53l-0.05,0.7l0.31,0.78l0.57,0.18l1.11-0.4l0.42-0.65l0.91-1.22l0.96-0.6l-0.04,0.47l1.22-0.47
	l0.79-0.41l-0.18,0.41h3.37l-0.22,1.43l-0.35,1.09h0.48l-0.44,0.7v1.09h0.44l-0.31,1.22l0.66,0.35l-0.57,0.61L63.74,54.01z">

	<animate 
		attributeName="fill"
		attributeType="XML"
		values="#4DAF4C;#fff;#4DAF4C"
		begin="2s"
		dur="5s"
		fill="freeze"
    	repeatCount="indefinite" />

</polygon>

</svg>
