<?xml version="1.0" encoding="utf-8"?>
<!-- Generator: Adobe Illustrator 25.4.1, SVG Export Plug-In . SVG Version: 6.00 Build 0)  -->
<svg version="1.1" id="Layer_1" xmlns="http://www.w3.org/2000/svg" xmlns:xlink="http://www.w3.org/1999/xlink" x="0px" y="0px"
	 viewBox="0 0 100 100" style="enable-background:new 0 0 100 100;" xml:space="preserve">
<style type="text/css">
	.st0{fill:#4DAF4C;}
</style>
<polygon class="st0" points="99,88.4 97.4,89.6 98.5,89.7 96.3,91 98.7,91.3 97.4,93.1 97.9,93.2 96.8,94.1 97.3,94.5 95.9,95.2 
	95.6,95.7 94.7,95.9 95,96.9 93.6,97.3 92.1,97.1 92.6,97.9 90.9,97.9 89.2,97.4 88.3,96.3 86.8,95.3 85.2,94.4 83.8,93.9 
	82.3,94.4 80.6,95.3 79.2,96.3 78.2,97.4 76.6,97.9 74.8,97.9 75.4,97.1 73.9,97.3 72.5,96.9 72.8,95.9 71.9,95.7 71.6,95.2 
	70.2,94.5 70.6,94.1 69.6,93.2 70,93.1 68.8,91.3 71.1,91 69,89.7 70.1,89.6 68.5,88.4 69,88.4 67.8,86.8 69.3,86.6 68.4,85.2 
	69.2,85.1 68.2,83.6 69.5,83.4 68.9,81.6 69.9,81.5 69.2,80.6 69.5,80.2 69.4,79.1 71.8,79.7 72.1,79.4 73,80 73.6,79.6 74.5,80.3 
	75.5,77.2 76.4,78 78.6,75.5 79.2,76.4 80.7,74.4 81.1,75 83.7,72.8 86.4,75 86.7,74.4 88.3,76.4 88.9,75.5 91.1,78 92,77.2 
	93,80.3 93.9,79.6 94.4,80 95.4,79.4 95.7,79.7 98,79.1 98,80.2 98.3,80.6 97.6,81.5 98.6,81.6 98,83.4 99.3,83.6 98.3,85.1 
	99.1,85.2 98.2,86.6 99.6,86.8 98.5,88.4 ">
<animate  accumulate="none" additive="replace" attributeName="fill" attributeType="XML" begin="1s" calcMode="linear" dur="5s" fill="remove" repeatCount="indefinite" restart="always" values="#4DAF4C;#fff;#4DAF4C">
	</animate>
</polygon>
<polygon class="st0" points="31.4,87.2 31.6,87.5 31,88.4 31,88.9 30.3,89.3 30.2,89.9 30.7,91.3 29.9,91.9 30,92.3 29.3,92.9 
	29.3,93.3 27.1,94 26.2,96 24.4,96.6 24,97.4 22,97.1 21.5,97.4 20.4,96.6 19.9,96.8 18.6,94.6 18.4,92.9 17.9,91.3 17,90.5 
	16.3,90.2 16.3,90.3 15.5,90.5 14.6,91.3 14.1,93 13.9,94.7 12.6,96.9 12.2,96.7 11,97.4 10.5,97.1 8.6,97.4 8.1,96.7 6.3,96.1 
	5.4,94.1 3.2,93.3 3.2,92.9 2.5,92.4 2.6,92 1.9,91.3 2.4,90 2.2,89.4 1.5,88.9 1.5,88.5 0.9,87.5 1.1,87.3 0.6,86.2 1,85.6 
	0.8,84.5 1.1,84.2 0.9,82.9 1.3,82.6 1.2,80.8 1.7,80.5 2,78.9 2.2,78.8 2.8,76.7 3,76.5 3.8,77.3 4.5,77.3 4.8,77.5 5,77.3 
	5.4,77.3 6.3,77.9 6.9,77.9 8,79.7 8.5,80 9.5,79.9 9.7,79.5 9.6,79.1 9.1,78.6 8.8,78.2 8.6,77.6 8.8,77.3 8.8,76.5 8.9,76.2 
	9.1,76.2 9.3,75.5 9.4,75.3 9.5,75 9.6,74.5 10.5,74.5 10.9,73.9 11.1,73.9 11.7,73.1 12.5,73 13.2,72.2 13.8,72 14.5,71.4 15,71.4 
	15.8,70.9 16.3,70.4 16.3,70.3 16.7,70.9 17.5,71.4 18,71.4 18.7,71.9 19.3,72.1 20,73 20.8,73.1 21.4,73.9 21.6,73.9 22,74.5 
	22.9,74.5 23,74.9 23.1,75.2 23.3,75.5 23.4,76.1 23.7,76.1 23.7,76.4 23.7,77.3 24,77.5 23.7,78.1 23.4,78.6 22.9,79 22.8,79.5 
	23.1,79.9 24,79.9 24.5,79.6 25.6,77.9 26.2,77.8 27.1,77.3 27.5,77.3 27.7,77.4 28,77.3 28.7,77.2 29.5,76.4 29.8,76.7 30.3,78.7 
	30.5,78.9 30.8,80.4 31.3,80.8 31.2,82.5 31.6,82.8 31.4,84.2 31.7,84.4 31.5,85.5 31.9,86.2 ">
<animate  accumulate="none" additive="replace" attributeName="fill" attributeType="XML" begin="1s" calcMode="linear" dur="5s" fill="freeze" repeatCount="indefinite" restart="always" values="#4DAF4C;#fff;#4DAF4C">
	</animate>
</polygon>
<path class="st0" d="M96.2,20.9v0.5l0.3,0.4l-0.9,0.7l0.5,0.7l0.4,0.5L96,24.1l-1.2,0l-1-0.2v0.4L93,23.9l0.1,0.5l-0.8-0.1l-0.6-0.4
	l-0.4-0.2l-0.6-0.2l-0.5,0l-0.3,0.8l1.2,0.5l0.9,0.1l-0.4,0.6l0.6,0.6l1.2,0.6l0.8,1l-0.9,0.1v0.4h-0.9v0.4l-0.9-0.2
	c0,0,0.1,0.5,0,0.5c-0.1,0-0.6,0.2-0.6,0.2l-0.8,0l-0.4,0.7l-0.9-0.3l-0.7-0.1L87,28.8l-1.5-0.9L85,27.1l-0.2-0.8l-0.7-0.4l0-0.5
	l0.5-0.5l0.2-1L84.5,23l-0.8-0.5L82.9,23l-0.2,0.9l0.2,1l0.5,0.5l0,0.5l-0.7,0.4l-0.2,0.8l-0.5,0.8l-1.5,0.9l-1.1,0.5l-0.7,0.1
	l-0.8,0.3l-0.4-0.7l-0.8,0c0,0-0.5-0.1-0.6-0.2c-0.1,0,0-0.5,0-0.5l-0.9,0.2v-0.4h-0.9v-0.4l-0.9-0.1l0.8-1l1.2-0.6l0.6-0.6
	l-0.4-0.6l0.9-0.1l1.2-0.5l-0.3-0.8l-0.5,0l-0.6,0.2l-0.4,0.2l-0.6,0.4l-0.8,0.1l0.1-0.5l-0.7,0.4v-0.4l-1,0.2l-1.2,0l-0.5-0.4
	l0.4-0.5l0.5-0.7l-0.9-0.7l0.3-0.4v-0.5l-0.5-0.5l-0.5-0.5l0.6-0.3l-0.3-1.1h0.4v-1l-0.4-0.6h0.4l-0.3-1l-0.2-1.3h3l-0.1-0.4
	l0.7,0.4L75,15l0-0.4l0.8,0.5l0.8,1.1l0.4,0.6l1,0.4l0.5-0.2l0.3-0.7l0-0.6l-0.5-0.5l-0.6-0.1L77,15l-0.7-0.2l-0.3-0.5h0.7l-0.7-0.7
	l-0.5-0.4l-0.2-0.5h0.6l-0.4-0.6l-0.1-1l0-0.3l1.1-0.2l0.7,0.3l-0.1-1.2l0.4,0.3l0.1-0.5c0,0,0-0.6,0-0.7c0-0.1-0.3-0.8-0.3-0.8
	l0.2-0.3l0.8,0.5l0.5,0.3L79,7.8l0-0.8h0.3l0.5-0.7l0.5,0.2L80.6,5L81,5.2l0.7-1.1l1.1-1.2l1-0.5l1,0.5l1.1,1.2l0.7,1.1L86.9,5
	l0.2,1.5l0.5-0.2L88.1,7h0.3l0,0.8l0.1,0.6l0.5-0.3l0.8-0.5l0.2,0.3c0,0-0.2,0.7-0.3,0.8c0,0.1,0,0.7,0,0.7l0.1,0.5l0.4-0.3
	l-0.1,1.2l0.7-0.3l1.1,0.2l0,0.3l-0.1,1l-0.4,0.6h0.6L92,13.2l-0.5,0.4l-0.7,0.7h0.7l-0.3,0.5L90.5,15L90,15.2l-0.6,0.1l-0.5,0.5
	l0,0.6L89,17l0.5,0.2l1-0.4l0.4-0.6l0.8-1.1l0.8-0.5l0,0.4l1.1-0.4l0.7-0.4l-0.2,0.4h3l-0.2,1.3l-0.3,1H97l-0.4,0.6v1H97l-0.3,1.1
	l0.6,0.3l-0.5,0.5L96.2,20.9z">
<animate  accumulate="none" additive="replace" attributeName="fill" attributeType="XML" begin="2s" calcMode="linear" dur="5s" fill="freeze" repeatCount="indefinite" restart="always" values="#4DAF4C;#fff;#4DAF4C">
		</animate>
</path>
<polygon class="st0" points="65,52.7 63.4,53.8 64.5,54 62.3,55.2 64.7,55.5 63.4,57.3 63.9,57.4 62.8,58.3 63.2,58.7 61.9,59.4 
	61.6,60 60.6,60.1 61,61.1 59.6,61.5 58.1,61.3 58.6,62.1 56.9,62.1 55.2,61.7 54.3,60.5 52.8,59.5 51.2,58.6 49.8,58.1 48.2,58.6 
	46.6,59.5 45.2,60.5 44.2,61.7 42.6,62.1 40.8,62.1 41.4,61.3 39.9,61.5 38.4,61.1 38.8,60.1 37.9,60 37.6,59.4 36.2,58.7 
	36.6,58.3 35.6,57.4 36,57.3 34.7,55.5 37.1,55.2 35,54 36.1,53.8 34.5,52.7 35,52.6 33.8,51 35.3,50.8 34.4,49.4 35.1,49.3 
	34.2,47.8 35.5,47.7 34.9,45.8 35.8,45.7 35.2,44.8 35.5,44.4 35.4,43.3 37.8,43.9 38.1,43.6 39,44.2 39.6,43.8 40.5,44.5 
	41.5,41.4 42.4,42.2 44.6,39.7 45.2,40.6 46.7,38.6 47.1,39.2 49.7,37 52.4,39.2 52.7,38.6 54.3,40.6 54.9,39.7 57,42.2 58,41.4 
	59,44.5 59.9,43.8 60.4,44.2 61.4,43.6 61.6,43.9 64,43.3 64,44.4 64.3,44.8 63.6,45.7 64.5,45.8 64,47.7 65.3,47.8 64.3,49.3 
	65.1,49.4 64.2,50.8 65.6,51 64.5,52.6 ">
<animate  accumulate="none" additive="replace" attributeName="fill" attributeType="XML" begin="3s" calcMode="linear" dur="5s" fill="remove" repeatCount="indefinite" restart="always" values="#4DAF4C;#fff;#4DAF4C">
	</animate>
</polygon>
<polygon class="st0" points="98.9,52.9 99.1,53.1 98.5,54.1 98.5,54.6 97.8,55 97.6,55.6 98.1,56.9 97.4,57.6 97.5,58 96.7,58.5 
	96.7,58.9 94.6,59.7 93.7,61.7 91.9,62.3 91.4,63 89.4,62.7 89,63 87.8,62.3 87.4,62.5 86.1,60.3 85.9,58.6 85.4,56.9 84.5,56.1 
	83.7,55.9 83.7,55.9 83,56.2 82.1,57 81.6,58.6 81.4,60.3 80.1,62.5 79.6,62.3 78.5,63.1 78,62.8 76,63.1 75.6,62.4 73.8,61.8 
	72.9,59.8 70.7,59 70.7,58.6 69.9,58 70.1,57.6 69.3,57 69.8,55.7 69.7,55 69,54.6 69,54.1 68.4,53.2 68.6,52.9 68.1,51.9 
	68.5,51.2 68.3,50.2 68.5,49.9 68.4,48.6 68.8,48.2 68.7,46.5 69.2,46.1 69.4,44.6 69.7,44.4 70.2,42.4 70.5,42.2 71.3,42.9 
	71.9,43 72.3,43.1 72.5,43 72.8,43 73.8,43.6 74.4,43.6 75.5,45.3 76,45.6 76.9,45.6 77.2,45.2 77,44.7 76.6,44.3 76.3,43.8 
	76,43.2 76.3,43 76.3,42.2 76.3,41.9 76.6,41.9 76.7,41.2 76.9,41 77,40.6 77,40.2 78,40.2 78.4,39.6 78.6,39.6 79.2,38.8 80,38.7 
	80.7,37.8 81.3,37.7 81.9,37.1 82.5,37.1 83.3,36.6 83.7,36.1 83.7,36 84.2,36.5 85,37 85.5,37 86.2,37.6 86.7,37.8 87.4,38.6 
	88.3,38.7 88.9,39.6 89.1,39.6 89.5,40.2 90.4,40.2 90.5,40.6 90.6,40.9 90.7,41.1 90.9,41.8 91.1,41.8 91.2,42.1 91.2,42.9 
	91.4,43.2 91.2,43.8 90.9,44.3 90.4,44.7 90.3,45.1 90.5,45.5 91.5,45.6 92,45.3 93.1,43.5 93.7,43.5 94.6,42.9 94.9,42.9 
	95.2,43.1 95.5,42.9 96.2,42.9 97,42.1 97.2,42.3 97.8,44.4 98,44.5 98.3,46.1 98.8,46.4 98.7,48.2 99.1,48.5 98.9,49.8 99.2,50.1 
	99,51.2 99.4,51.8 ">
<animate  accumulate="none" additive="replace" attributeName="fill" attributeType="XML" begin="2s" calcMode="linear" dur="5s" fill="freeze" repeatCount="indefinite" restart="always" values="#4DAF4C;#fff;#4DAF4C">
	</animate>
</polygon>
<path class="st0" d="M62.2,88.7v0.5l0.3,0.4l-0.9,0.7l0.5,0.7l0.4,0.5L62,91.9l-1.2,0l-1-0.2v0.4L59,91.8l0.1,0.5l-0.8-0.1l-0.6-0.4
	l-0.4-0.2l-0.6-0.2l-0.5,0l-0.3,0.8l1.2,0.5l0.9,0.1l-0.4,0.6l0.6,0.6l1.2,0.6l0.8,1l-0.9,0.1v0.4h-0.9v0.4l-0.9-0.2
	c0,0,0.1,0.5,0,0.5c-0.1,0-0.6,0.2-0.6,0.2L56,97l-0.4,0.7l-0.9-0.3l-0.7-0.1L53,96.6l-1.5-0.9L51,95l-0.2-0.8l-0.7-0.4l0-0.5
	l0.5-0.5l0.2-1l-0.2-0.9l-0.8-0.5l-0.8,0.5l-0.2,0.9l0.2,1l0.5,0.5l0,0.5l-0.7,0.4L48.5,95l-0.5,0.8l-1.5,0.9l-1.1,0.5l-0.7,0.1
	l-0.8,0.3L43.5,97l-0.8,0c0,0-0.5-0.1-0.6-0.2c-0.1,0,0-0.5,0-0.5l-0.9,0.2v-0.4h-0.9v-0.4l-0.9-0.1l0.8-1l1.2-0.6l0.6-0.6l-0.4-0.6
	l0.9-0.1l1.2-0.5l-0.3-0.8l-0.5,0l-0.6,0.2l-0.4,0.2l-0.6,0.4l-0.8,0.1l0.1-0.5l-0.7,0.4v-0.4l-1,0.2l-1.2,0l-0.5-0.4l0.4-0.5
	l0.5-0.7l-0.9-0.7l0.3-0.4v-0.5l-0.5-0.5l-0.5-0.5l0.6-0.3l-0.3-1.1h0.4v-1l-0.4-0.6h0.4l-0.3-1l-0.2-1.3h3l-0.1-0.4l0.7,0.4
	l1.1,0.4l0-0.4l0.8,0.5l0.8,1.1l0.4,0.6l1,0.4l0.5-0.2l0.3-0.7l0-0.6l-0.5-0.5L43.5,83L43,82.9l-0.7-0.2l-0.3-0.5h0.7l-0.7-0.7
	L41.5,81l-0.2-0.5h0.6L41.5,80l-0.1-1l0-0.3l1.1-0.2l0.7,0.3l-0.1-1.2l0.4,0.3l0.1-0.5c0,0,0-0.6,0-0.7c0-0.1-0.3-0.8-0.3-0.8
	l0.2-0.3l0.8,0.5l0.5,0.3l0.1-0.6l0-0.8h0.3l0.5-0.7l0.5,0.2l0.2-1.5L47,73l0.7-1.1l1.1-1.2l1-0.5l1,0.5l1.1,1.2l0.7,1.1l0.4-0.2
	l0.2,1.5l0.5-0.2l0.5,0.7h0.3l0,0.8l0.1,0.6l0.5-0.3l0.8-0.5l0.2,0.3c0,0-0.2,0.7-0.3,0.8c0,0.1,0,0.7,0,0.7l0.1,0.5l0.4-0.3
	l-0.1,1.2l0.7-0.3l1.1,0.2l0,0.3l-0.1,1l-0.4,0.6h0.6L58,81l-0.5,0.4l-0.7,0.7h0.7l-0.3,0.5l-0.7,0.2L55.9,83l-0.6,0.1l-0.5,0.5
	l0,0.6l0.3,0.7l0.5,0.2l1-0.4l0.4-0.6l0.8-1.1l0.8-0.5l0,0.4l1.1-0.4l0.7-0.4l-0.2,0.4h3l-0.2,1.3l-0.3,1H63l-0.4,0.6v1H63l-0.3,1.1
	l0.6,0.3l-0.5,0.5L62.2,88.7z">
<animate  accumulate="none" additive="replace" attributeName="fill" attributeType="XML" begin="5s" calcMode="linear" dur="5s" fill="freeze" repeatCount="indefinite" restart="always" values="#4DAF4C;#fff;#4DAF4C">
		</animate>
</path>
<polygon class="st0" points="31.5,19.1 29.9,20.3 31,20.4 28.9,21.7 31.2,22 30,23.8 30.4,23.9 29.4,24.7 29.8,25.2 28.4,25.8 
	28.1,26.4 27.2,26.6 27.5,27.5 26.1,28 24.6,27.8 25.2,28.6 23.4,28.6 21.8,28.1 20.8,27 19.4,26 17.7,25.1 16.3,24.6 14.8,25.1 
	13.2,26 11.7,27 10.8,28.1 9.1,28.6 7.4,28.6 7.9,27.8 6.4,28 5,27.5 5.3,26.6 4.4,26.4 4.1,25.8 2.7,25.2 3.2,24.7 2.1,23.9 
	2.6,23.8 1.3,22 3.7,21.7 1.5,20.4 2.6,20.3 1,19.1 1.5,19.1 0.4,17.5 1.8,17.3 0.9,15.9 1.7,15.8 0.7,14.3 2,14.1 1.4,12.3 
	2.4,12.2 1.7,11.3 2,10.9 2,9.8 4.4,10.4 4.6,10.1 5.6,10.7 6.1,10.3 7,10.9 8,7.9 9,8.7 11.1,6.2 11.7,7.1 13.3,5.1 13.6,5.7 
	16.3,3.5 18.9,5.7 19.3,5.1 20.8,7.1 21.4,6.2 23.6,8.7 24.5,7.9 25.5,10.9 26.4,10.3 27,10.7 27.9,10.1 28.2,10.4 30.6,9.8 
	30.5,10.9 30.8,11.3 30.2,12.2 31.1,12.3 30.5,14.1 31.8,14.3 30.8,15.8 31.6,15.9 30.7,17.3 32.2,17.5 31,19.1 ">
<animate  accumulate="none" additive="replace" attributeName="fill" attributeType="XML" begin="4s" calcMode="linear" dur="5s" fill="remove" repeatCount="indefinite" restart="always" values="#4DAF4C;#fff;#4DAF4C">
	</animate>
</polygon>
<polygon class="st0" points="64.9,19.3 65,19.6 64.5,20.5 64.5,21 63.8,21.4 63.6,22.1 64.1,23.4 63.3,24 63.5,24.4 62.7,25 
	62.7,25.4 60.6,26.2 59.7,28.2 57.9,28.8 57.4,29.5 55.4,29.2 55,29.5 53.8,28.7 53.4,28.9 52.1,26.7 51.9,25.1 51.4,23.4 
	50.5,22.6 49.7,22.3 49.7,22.4 49,22.7 48.1,23.5 47.6,25.1 47.3,26.8 46.1,29 45.6,28.8 44.5,29.6 44,29.3 42,29.6 41.6,28.8 
	39.7,28.2 38.9,26.2 36.7,25.5 36.7,25.1 35.9,24.5 36.1,24.1 35.3,23.5 35.8,22.1 35.7,21.5 35,21.1 35,20.6 34.4,19.7 34.6,19.4 
	34,18.4 34.5,17.7 34.3,16.6 34.5,16.4 34.4,15 34.8,14.7 34.7,13 35.2,12.6 35.4,11.1 35.7,10.9 36.2,8.9 36.5,8.6 37.3,9.4 
	37.9,9.5 38.3,9.6 38.5,9.5 38.8,9.5 39.8,10 40.4,10.1 41.5,11.8 42,12.1 42.9,12.1 43.1,11.7 43,11.2 42.6,10.8 42.3,10.3 42,9.7 
	42.3,9.5 42.3,8.6 42.3,8.3 42.6,8.3 42.7,7.7 42.8,7.4 43,7.1 43,6.7 44,6.7 44.4,6.1 44.6,6.1 45.2,5.3 46,5.2 46.7,4.3 47.2,4.1 
	47.9,3.6 48.5,3.6 49.2,3.1 49.7,2.6 49.7,2.5 50.2,3 51,3.5 51.5,3.5 52.2,4.1 52.7,4.2 53.4,5.1 54.3,5.2 54.8,6 55.1,6 55.4,6.6 
	56.4,6.6 56.5,7.1 56.6,7.4 56.7,7.6 56.9,8.3 57.1,8.3 57.2,8.6 57.2,9.4 57.4,9.6 57.2,10.2 56.9,10.7 56.4,11.1 56.3,11.6 
	56.5,12 57.4,12.1 58,11.7 59.1,10 59.7,10 60.6,9.4 60.9,9.4 61.2,9.5 61.5,9.4 62.2,9.3 63,8.6 63.2,8.8 63.8,10.8 64,11 
	64.2,12.5 64.7,12.9 64.7,14.7 65.1,15 64.9,16.3 65.1,16.6 65,17.6 65.4,18.3 ">
<animate  accumulate="none" additive="replace" attributeName="fill" attributeType="XML" begin="2s" calcMode="linear" dur="5s" fill="freeze" repeatCount="indefinite" restart="always" values="#4DAF4C;#fff;#4DAF4C">
	</animate>
</polygon>
<path class="st0" d="M28.8,54.4v0.5l0.3,0.4L28.2,56l0.5,0.7l0.4,0.5l-0.5,0.4l-1.2,0l-1-0.2v0.4l-0.7-0.4l0.1,0.5l-0.8-0.1
	l-0.6-0.4l-0.4-0.2L23.2,57l-0.5,0l-0.3,0.8l1.2,0.5l0.9,0.1L24.1,59l0.6,0.6l1.2,0.6l0.8,1l-0.9,0.1v0.4h-0.9v0.4L24,62
	c0,0,0.1,0.5,0,0.5c-0.1,0-0.6,0.2-0.6,0.2l-0.8,0l-0.4,0.7L21.3,63l-0.7-0.1l-1.1-0.5l-1.5-0.9l-0.5-0.8l-0.2-0.8l-0.7-0.4l0-0.5
	l0.5-0.5l0.2-1l-0.2-0.9L16.3,56l-0.8,0.5l-0.2,0.9l0.2,1l0.5,0.5l0,0.5l-0.7,0.4L15,60.6l-0.5,0.8L13,62.3l-1.1,0.5L11.2,63
	l-0.8,0.3L10,62.6l-0.8,0c0,0-0.5-0.1-0.6-0.2c-0.1,0,0-0.5,0-0.5l-0.9,0.2v-0.4H6.7v-0.4l-0.9-0.1l0.8-1l1.2-0.6L8.4,59L8,58.4
	l0.9-0.1l1.2-0.5L9.8,57l-0.5,0l-0.6,0.2l-0.4,0.2l-0.6,0.4l-0.8,0.1L7,57.4l-0.7,0.4v-0.4l-1,0.2l-1.2,0l-0.5-0.4l0.4-0.5L4.3,56
	l-0.9-0.7l0.3-0.4v-0.5l-0.5-0.5l-0.5-0.5L3.3,53L3,52h0.4v-1L3,50.4h0.4l-0.3-1l-0.2-1.3h3l-0.1-0.4l0.7,0.4l1.1,0.4l0-0.4l0.8,0.5
	l0.8,1.1l0.4,0.6l1,0.4l0.5-0.2l0.3-0.7l0-0.6l-0.5-0.5L10,48.7l-0.6-0.2l-0.7-0.2l-0.3-0.5h0.7l-0.7-0.7L8,46.7l-0.2-0.5h0.6
	l-0.4-0.6l-0.1-1l0-0.3l1.1-0.2l0.7,0.3l-0.1-1.2l0.4,0.3l0.1-0.5c0,0,0-0.6,0-0.7c0-0.1-0.3-0.8-0.3-0.8l0.2-0.3l0.8,0.5l0.5,0.3
	l0.1-0.6l0-0.8h0.3l0.5-0.7l0.5,0.2l0.2-1.5l0.4,0.2l0.7-1.1l1.1-1.2l1-0.5l1,0.5l1.1,1.2l0.7,1.1l0.4-0.2l0.2,1.5l0.5-0.2l0.5,0.7
	h0.3l0,0.8l0.1,0.6l0.5-0.3l0.8-0.5l0.2,0.3c0,0-0.2,0.7-0.3,0.8c0,0.1,0,0.7,0,0.7l0.1,0.5l0.4-0.3l-0.1,1.2l0.7-0.3l1.1,0.2l0,0.3
	l-0.1,1l-0.4,0.6h0.6l-0.2,0.5l-0.5,0.4l-0.7,0.7h0.7l-0.3,0.5L23,48.5l-0.6,0.2l-0.6,0.1l-0.5,0.5l0,0.6l0.3,0.7l0.5,0.2l1-0.4
	l0.4-0.6l0.8-1.1l0.8-0.5l0,0.4l1.1-0.4l0.7-0.4l-0.2,0.4h3l-0.2,1.3l-0.3,1h0.4L29.1,51v1h0.4L29.2,53l0.6,0.3l-0.5,0.5L28.8,54.4z
	">
<animate  accumulate="none" additive="replace" attributeName="fill" attributeType="XML" begin="5s" calcMode="linear" dur="5s" fill="freeze" repeatCount="indefinite" restart="always" values="#4DAF4C;#fff;#4DAF4C">
		</animate>
</path>
</svg>
